<svg id="svg" width="79.2px" height="54px" xmlns="http://www.w3.org/2000/svg"><desc>Created with Snap</desc><defs></defs><g transform="matrix(1,0,0,1,0,0)"><g transform="matrix(1,0,0,1,0,0)" class="notCable"><path d="M 3.562728,18.351402 3.644043,18.316032 3.547102,18.050553 C 2.4024304,14.915774 1.7365185,12.256679 1.4990883,9.8724966 1.4324193,9.2030345 1.4321283,7.4314953 1.498587,6.8282117 1.6722442,5.2518351 2.057911,3.9142104 2.7096379,2.6278699 2.9625247,2.1287367 3.3245351,1.5103477 3.3638453,1.5103477 c 0.020201,0 0.8634283,1.3043786 1.4199534,2.1965092 1.8412679,2.9516239 3.1051592,5.6328124 3.914952,8.3050831 0.558309,1.84239 0.9194482,3.800568 1.0410259,5.644676 l 0.030486,0.462424 h 0.226331 0.2263324 l 0.01276,-0.128448 c 0.007,-0.07065 0.03127,-0.377003 0.05388,-0.680789 0.242708,-3.260207 1.233593,-6.669792 2.919204,-10.0448581 0.783035,-1.5678552 1.496329,-2.7848007 3.014823,-5.1435606 l 0.408752,-0.6349364 0.04744,0.069753 c 0.138428,0.2035243 0.473883,0.787144 0.618428,1.0759453 1.604393,3.2056181 1.686657,6.9869201 0.261521,12.0210548 -0.260463,0.920068 -0.74782,2.417293 -1.10197,3.38541 -0.05101,0.139444 -0.09275,0.262053 -0.09275,0.272452 0,0.01046 0.03757,0.03096 0.08349,0.04569 0.05843,0.01875 -1.875548,0.02727 -6.441805,0.02841 -5.5622886,0.0014 -6.5133018,-0.0037 -6.4439878,-0.03376 z" style="stroke-width: 1;" class="color0" fill="skyblue"></path><path d="m 6.6472803,0.14838827 c -2.8504919,0 -3.0803603,0.00379 -3.0653469,0.042917 0.033412,0.087068 0.065296,0.3895331 0.065964,0.6254674 L 3.6486909,1.0607606 4.1779937,1.882531 C 6.0707923,4.8225615 7.0608632,6.5957705 7.9395412,8.6188233 L 8.1541226,9.1123617 8.2367768,8.9899703 C 8.96918,7.9024128 9.4761647,6.074619 9.6712983,3.8225127 9.7533953,2.8749901 9.7904511,1.2090191 9.7460053,0.43767697 l -0.016692,-0.2892887 z m 3.6113397,0 -0.0159,0.7264006 c -0.0186,0.81028933 0.01326,2.03427423 0.07312,2.79354263 0.179929,2.2821433 0.643249,4.025837 1.391605,5.2342164 0.06344,0.1024402 0.12382,0.1867663 0.133517,0.1867663 0.0097,0 0.06256,-0.1069309 0.117623,-0.2376302 0.35378,-0.8397893 0.991449,-2.1456995 1.509229,-3.089984 0.609767,-1.1120442 1.15221,-2.0080323 2.239602,-3.6987615 l 0.64454,-1.0021784 0.01589,-0.37273723 c 0.0086,-0.2048791 0.02413,-0.40947 0.03497,-0.4553912 l 0.01987,-0.084243 H 13.340654 Z M 0.11046987,8.3684767 l -0.01669,0.9314459 c -0.00891,0.5125305 -0.02215,1.9151944 -0.029406,3.1162104 -0.00726,1.201015 -0.019467,2.440216 -0.027816,2.7546 l -0.015895,0.572219 h 0.1986872 c 0.6473078,0 1.43473323,-0.244092 1.73493713,-0.538045 L 2.0790631,15.082516 1.9630299,14.674015 C 1.3515041,12.510477 1.0007983,10.396405 0.96959357,8.6911447 l -0.00556,-0.3083628 -0.4267802,-0.00715 z m 18.93409413,8.137e-4 -0.01749,0.4824127 c -0.0641,1.7421169 -0.36216,3.5244819 -0.944957,5.6562279 l -0.157359,0.576988 0.144642,0.135108 c 0.158947,0.147947 0.415888,0.282005 0.69779,0.363995 0.186839,0.05434 0.524576,0.124003 0.680304,0.140675 0.04946,0.0052 0.187219,0.012 0.30598,0.0143 l 0.21617,0.004 -0.01669,-1.291468 c -0.0092,-0.710012 -0.02404,-2.368461 -0.03337,-3.686046 l -0.01749,-2.3961771 h -0.42837 z" style="stroke-width: 1;" class="color0" fill="skyblue"></path><path d="m 17.760231,15.226523 c 0.379437,0.596564 1.658223,0.786145 2.224945,0.748005 M 18.845234,8.1442028 c 1.066938,0 1.066938,0 1.066938,0 M 16.57368,1.3167025 C 16.62235,1.0937484 16.5288,0.51834607 16.66254,0.19987087 M 11.996185,9.6756766 C 11.039374,8.6342652 9.7864483,6.0382802 10.0344,0.03635787 m 6.53927,0.9459057 C 20.323709,6.225462 18.654281,12.67743 16.57947,18.389744 M 9.9999906,18.098828 C 10.386624,9.9922755 14.711104,4.1101274 16.676938,0.98226357 M 2.2397662,15.226523 C 1.860329,15.823087 0.58154197,16.012668 0.01481897,15.974528 M 1.1547627,8.1442028 c -1.06693803,0 -1.06693803,0 -1.06693803,0 M 3.4263162,1.3167025 C 3.3776562,1.0937484 3.4711882,0.51834607 3.3374452,0.19987087 M 8.0038071,9.6756766 C 8.9606166,8.6342652 10.213545,6.0382802 9.9655926,0.03635787 m -6.539276,0.9459057 C -0.32372243,6.225462 1.3457055,12.67743 3.4204878,18.389744 M 10.000018,18.098828 C 9.6133847,9.9922755 5.2889001,4.1101274 3.3230644,0.98226357" style="fill-opacity: 0; stroke-width: 1;" stroke="#000000" class="outline"></path></g><g transform="matrix(1,0,0,1,19.8,0)" class="notCable"><path d="M 3.562728,18.351402 3.644043,18.316032 3.547102,18.050553 C 2.4024304,14.915774 1.7365185,12.256679 1.4990883,9.8724966 1.4324193,9.2030345 1.4321283,7.4314953 1.498587,6.8282117 1.6722442,5.2518351 2.057911,3.9142104 2.7096379,2.6278699 2.9625247,2.1287367 3.3245351,1.5103477 3.3638453,1.5103477 c 0.020201,0 0.8634283,1.3043786 1.4199534,2.1965092 1.8412679,2.9516239 3.1051592,5.6328124 3.914952,8.3050831 0.558309,1.84239 0.9194482,3.800568 1.0410259,5.644676 l 0.030486,0.462424 h 0.226331 0.2263324 l 0.01276,-0.128448 c 0.007,-0.07065 0.03127,-0.377003 0.05388,-0.680789 0.242708,-3.260207 1.233593,-6.669792 2.919204,-10.0448581 0.783035,-1.5678552 1.496329,-2.7848007 3.014823,-5.1435606 l 0.408752,-0.6349364 0.04744,0.069753 c 0.138428,0.2035243 0.473883,0.787144 0.618428,1.0759453 1.604393,3.2056181 1.686657,6.9869201 0.261521,12.0210548 -0.260463,0.920068 -0.74782,2.417293 -1.10197,3.38541 -0.05101,0.139444 -0.09275,0.262053 -0.09275,0.272452 0,0.01046 0.03757,0.03096 0.08349,0.04569 0.05843,0.01875 -1.875548,0.02727 -6.441805,0.02841 -5.5622886,0.0014 -6.5133018,-0.0037 -6.4439878,-0.03376 z" style="stroke-width: 1;" class="color0" fill="skyblue"></path><path d="m 6.6472803,0.14838827 c -2.8504919,0 -3.0803603,0.00379 -3.0653469,0.042917 0.033412,0.087068 0.065296,0.3895331 0.065964,0.6254674 L 3.6486909,1.0607606 4.1779937,1.882531 C 6.0707923,4.8225615 7.0608632,6.5957705 7.9395412,8.6188233 L 8.1541226,9.1123617 8.2367768,8.9899703 C 8.96918,7.9024128 9.4761647,6.074619 9.6712983,3.8225127 9.7533953,2.8749901 9.7904511,1.2090191 9.7460053,0.43767697 l -0.016692,-0.2892887 z m 3.6113397,0 -0.0159,0.7264006 c -0.0186,0.81028933 0.01326,2.03427423 0.07312,2.79354263 0.179929,2.2821433 0.643249,4.025837 1.391605,5.2342164 0.06344,0.1024402 0.12382,0.1867663 0.133517,0.1867663 0.0097,0 0.06256,-0.1069309 0.117623,-0.2376302 0.35378,-0.8397893 0.991449,-2.1456995 1.509229,-3.089984 0.609767,-1.1120442 1.15221,-2.0080323 2.239602,-3.6987615 l 0.64454,-1.0021784 0.01589,-0.37273723 c 0.0086,-0.2048791 0.02413,-0.40947 0.03497,-0.4553912 l 0.01987,-0.084243 H 13.340654 Z M 0.11046987,8.3684767 l -0.01669,0.9314459 c -0.00891,0.5125305 -0.02215,1.9151944 -0.029406,3.1162104 -0.00726,1.201015 -0.019467,2.440216 -0.027816,2.7546 l -0.015895,0.572219 h 0.1986872 c 0.6473078,0 1.43473323,-0.244092 1.73493713,-0.538045 L 2.0790631,15.082516 1.9630299,14.674015 C 1.3515041,12.510477 1.0007983,10.396405 0.96959357,8.6911447 l -0.00556,-0.3083628 -0.4267802,-0.00715 z m 18.93409413,8.137e-4 -0.01749,0.4824127 c -0.0641,1.7421169 -0.36216,3.5244819 -0.944957,5.6562279 l -0.157359,0.576988 0.144642,0.135108 c 0.158947,0.147947 0.415888,0.282005 0.69779,0.363995 0.186839,0.05434 0.524576,0.124003 0.680304,0.140675 0.04946,0.0052 0.187219,0.012 0.30598,0.0143 l 0.21617,0.004 -0.01669,-1.291468 c -0.0092,-0.710012 -0.02404,-2.368461 -0.03337,-3.686046 l -0.01749,-2.3961771 h -0.42837 z" style="stroke-width: 1;" class="color0" fill="skyblue"></path><path d="m 17.760231,15.226523 c 0.379437,0.596564 1.658223,0.786145 2.224945,0.748005 M 18.845234,8.1442028 c 1.066938,0 1.066938,0 1.066938,0 M 16.57368,1.3167025 C 16.62235,1.0937484 16.5288,0.51834607 16.66254,0.19987087 M 11.996185,9.6756766 C 11.039374,8.6342652 9.7864483,6.0382802 10.0344,0.03635787 m 6.53927,0.9459057 C 20.323709,6.225462 18.654281,12.67743 16.57947,18.389744 M 9.9999906,18.098828 C 10.386624,9.9922755 14.711104,4.1101274 16.676938,0.98226357 M 2.2397662,15.226523 C 1.860329,15.823087 0.58154197,16.012668 0.01481897,15.974528 M 1.1547627,8.1442028 c -1.06693803,0 -1.06693803,0 -1.06693803,0 M 3.4263162,1.3167025 C 3.3776562,1.0937484 3.4711882,0.51834607 3.3374452,0.19987087 M 8.0038071,9.6756766 C 8.9606166,8.6342652 10.213545,6.0382802 9.9655926,0.03635787 m -6.539276,0.9459057 C -0.32372243,6.225462 1.3457055,12.67743 3.4204878,18.389744 M 10.000018,18.098828 C 9.6133847,9.9922755 5.2889001,4.1101274 3.3230644,0.98226357" stroke="#000000" style="fill-opacity: 0; stroke-width: 1;" class="outline"></path></g><g transform="matrix(1,0,0,1,39.6,0)" class="notCable"><path d="M 3.562728,18.351402 3.644043,18.316032 3.547102,18.050553 C 2.4024304,14.915774 1.7365185,12.256679 1.4990883,9.8724966 1.4324193,9.2030345 1.4321283,7.4314953 1.498587,6.8282117 1.6722442,5.2518351 2.057911,3.9142104 2.7096379,2.6278699 2.9625247,2.1287367 3.3245351,1.5103477 3.3638453,1.5103477 c 0.020201,0 0.8634283,1.3043786 1.4199534,2.1965092 1.8412679,2.9516239 3.1051592,5.6328124 3.914952,8.3050831 0.558309,1.84239 0.9194482,3.800568 1.0410259,5.644676 l 0.030486,0.462424 h 0.226331 0.2263324 l 0.01276,-0.128448 c 0.007,-0.07065 0.03127,-0.377003 0.05388,-0.680789 0.242708,-3.260207 1.233593,-6.669792 2.919204,-10.0448581 0.783035,-1.5678552 1.496329,-2.7848007 3.014823,-5.1435606 l 0.408752,-0.6349364 0.04744,0.069753 c 0.138428,0.2035243 0.473883,0.787144 0.618428,1.0759453 1.604393,3.2056181 1.686657,6.9869201 0.261521,12.0210548 -0.260463,0.920068 -0.74782,2.417293 -1.10197,3.38541 -0.05101,0.139444 -0.09275,0.262053 -0.09275,0.272452 0,0.01046 0.03757,0.03096 0.08349,0.04569 0.05843,0.01875 -1.875548,0.02727 -6.441805,0.02841 -5.5622886,0.0014 -6.5133018,-0.0037 -6.4439878,-0.03376 z" style="stroke-width: 1;" class="color1" fill="pink"></path><path d="m 6.6472803,0.14838827 c -2.8504919,0 -3.0803603,0.00379 -3.0653469,0.042917 0.033412,0.087068 0.065296,0.3895331 0.065964,0.6254674 L 3.6486909,1.0607606 4.1779937,1.882531 C 6.0707923,4.8225615 7.0608632,6.5957705 7.9395412,8.6188233 L 8.1541226,9.1123617 8.2367768,8.9899703 C 8.96918,7.9024128 9.4761647,6.074619 9.6712983,3.8225127 9.7533953,2.8749901 9.7904511,1.2090191 9.7460053,0.43767697 l -0.016692,-0.2892887 z m 3.6113397,0 -0.0159,0.7264006 c -0.0186,0.81028933 0.01326,2.03427423 0.07312,2.79354263 0.179929,2.2821433 0.643249,4.025837 1.391605,5.2342164 0.06344,0.1024402 0.12382,0.1867663 0.133517,0.1867663 0.0097,0 0.06256,-0.1069309 0.117623,-0.2376302 0.35378,-0.8397893 0.991449,-2.1456995 1.509229,-3.089984 0.609767,-1.1120442 1.15221,-2.0080323 2.239602,-3.6987615 l 0.64454,-1.0021784 0.01589,-0.37273723 c 0.0086,-0.2048791 0.02413,-0.40947 0.03497,-0.4553912 l 0.01987,-0.084243 H 13.340654 Z M 0.11046987,8.3684767 l -0.01669,0.9314459 c -0.00891,0.5125305 -0.02215,1.9151944 -0.029406,3.1162104 -0.00726,1.201015 -0.019467,2.440216 -0.027816,2.7546 l -0.015895,0.572219 h 0.1986872 c 0.6473078,0 1.43473323,-0.244092 1.73493713,-0.538045 L 2.0790631,15.082516 1.9630299,14.674015 C 1.3515041,12.510477 1.0007983,10.396405 0.96959357,8.6911447 l -0.00556,-0.3083628 -0.4267802,-0.00715 z m 18.93409413,8.137e-4 -0.01749,0.4824127 c -0.0641,1.7421169 -0.36216,3.5244819 -0.944957,5.6562279 l -0.157359,0.576988 0.144642,0.135108 c 0.158947,0.147947 0.415888,0.282005 0.69779,0.363995 0.186839,0.05434 0.524576,0.124003 0.680304,0.140675 0.04946,0.0052 0.187219,0.012 0.30598,0.0143 l 0.21617,0.004 -0.01669,-1.291468 c -0.0092,-0.710012 -0.02404,-2.368461 -0.03337,-3.686046 l -0.01749,-2.3961771 h -0.42837 z" style="stroke-width: 1;" class="color1" fill="pink"></path><path d="m 17.760231,15.226523 c 0.379437,0.596564 1.658223,0.786145 2.224945,0.748005 M 18.845234,8.1442028 c 1.066938,0 1.066938,0 1.066938,0 M 16.57368,1.3167025 C 16.62235,1.0937484 16.5288,0.51834607 16.66254,0.19987087 M 11.996185,9.6756766 C 11.039374,8.6342652 9.7864483,6.0382802 10.0344,0.03635787 m 6.53927,0.9459057 C 20.323709,6.225462 18.654281,12.67743 16.57947,18.389744 M 9.9999906,18.098828 C 10.386624,9.9922755 14.711104,4.1101274 16.676938,0.98226357 M 2.2397662,15.226523 C 1.860329,15.823087 0.58154197,16.012668 0.01481897,15.974528 M 1.1547627,8.1442028 c -1.06693803,0 -1.06693803,0 -1.06693803,0 M 3.4263162,1.3167025 C 3.3776562,1.0937484 3.4711882,0.51834607 3.3374452,0.19987087 M 8.0038071,9.6756766 C 8.9606166,8.6342652 10.213545,6.0382802 9.9655926,0.03635787 m -6.539276,0.9459057 C -0.32372243,6.225462 1.3457055,12.67743 3.4204878,18.389744 M 10.000018,18.098828 C 9.6133847,9.9922755 5.2889001,4.1101274 3.3230644,0.98226357" stroke="#000000" style="fill-opacity: 0; stroke-width: 1;" class="outline"></path></g><g transform="matrix(1,0,0,1,59.4,0)" class="notCable"><path d="M 3.562728,18.351402 3.644043,18.316032 3.547102,18.050553 C 2.4024304,14.915774 1.7365185,12.256679 1.4990883,9.8724966 1.4324193,9.2030345 1.4321283,7.4314953 1.498587,6.8282117 1.6722442,5.2518351 2.057911,3.9142104 2.7096379,2.6278699 2.9625247,2.1287367 3.3245351,1.5103477 3.3638453,1.5103477 c 0.020201,0 0.8634283,1.3043786 1.4199534,2.1965092 1.8412679,2.9516239 3.1051592,5.6328124 3.914952,8.3050831 0.558309,1.84239 0.9194482,3.800568 1.0410259,5.644676 l 0.030486,0.462424 h 0.226331 0.2263324 l 0.01276,-0.128448 c 0.007,-0.07065 0.03127,-0.377003 0.05388,-0.680789 0.242708,-3.260207 1.233593,-6.669792 2.919204,-10.0448581 0.783035,-1.5678552 1.496329,-2.7848007 3.014823,-5.1435606 l 0.408752,-0.6349364 0.04744,0.069753 c 0.138428,0.2035243 0.473883,0.787144 0.618428,1.0759453 1.604393,3.2056181 1.686657,6.9869201 0.261521,12.0210548 -0.260463,0.920068 -0.74782,2.417293 -1.10197,3.38541 -0.05101,0.139444 -0.09275,0.262053 -0.09275,0.272452 0,0.01046 0.03757,0.03096 0.08349,0.04569 0.05843,0.01875 -1.875548,0.02727 -6.441805,0.02841 -5.5622886,0.0014 -6.5133018,-0.0037 -6.4439878,-0.03376 z" style="stroke-width: 1;" class="color1" fill="pink"></path><path d="m 6.6472803,0.14838827 c -2.8504919,0 -3.0803603,0.00379 -3.0653469,0.042917 0.033412,0.087068 0.065296,0.3895331 0.065964,0.6254674 L 3.6486909,1.0607606 4.1779937,1.882531 C 6.0707923,4.8225615 7.0608632,6.5957705 7.9395412,8.6188233 L 8.1541226,9.1123617 8.2367768,8.9899703 C 8.96918,7.9024128 9.4761647,6.074619 9.6712983,3.8225127 9.7533953,2.8749901 9.7904511,1.2090191 9.7460053,0.43767697 l -0.016692,-0.2892887 z m 3.6113397,0 -0.0159,0.7264006 c -0.0186,0.81028933 0.01326,2.03427423 0.07312,2.79354263 0.179929,2.2821433 0.643249,4.025837 1.391605,5.2342164 0.06344,0.1024402 0.12382,0.1867663 0.133517,0.1867663 0.0097,0 0.06256,-0.1069309 0.117623,-0.2376302 0.35378,-0.8397893 0.991449,-2.1456995 1.509229,-3.089984 0.609767,-1.1120442 1.15221,-2.0080323 2.239602,-3.6987615 l 0.64454,-1.0021784 0.01589,-0.37273723 c 0.0086,-0.2048791 0.02413,-0.40947 0.03497,-0.4553912 l 0.01987,-0.084243 H 13.340654 Z M 0.11046987,8.3684767 l -0.01669,0.9314459 c -0.00891,0.5125305 -0.02215,1.9151944 -0.029406,3.1162104 -0.00726,1.201015 -0.019467,2.440216 -0.027816,2.7546 l -0.015895,0.572219 h 0.1986872 c 0.6473078,0 1.43473323,-0.244092 1.73493713,-0.538045 L 2.0790631,15.082516 1.9630299,14.674015 C 1.3515041,12.510477 1.0007983,10.396405 0.96959357,8.6911447 l -0.00556,-0.3083628 -0.4267802,-0.00715 z m 18.93409413,8.137e-4 -0.01749,0.4824127 c -0.0641,1.7421169 -0.36216,3.5244819 -0.944957,5.6562279 l -0.157359,0.576988 0.144642,0.135108 c 0.158947,0.147947 0.415888,0.282005 0.69779,0.363995 0.186839,0.05434 0.524576,0.124003 0.680304,0.140675 0.04946,0.0052 0.187219,0.012 0.30598,0.0143 l 0.21617,0.004 -0.01669,-1.291468 c -0.0092,-0.710012 -0.02404,-2.368461 -0.03337,-3.686046 l -0.01749,-2.3961771 h -0.42837 z" style="stroke-width: 1;" class="color1" fill="pink"></path><path d="m 17.760231,15.226523 c 0.379437,0.596564 1.658223,0.786145 2.224945,0.748005 M 18.845234,8.1442028 c 1.066938,0 1.066938,0 1.066938,0 M 16.57368,1.3167025 C 16.62235,1.0937484 16.5288,0.51834607 16.66254,0.19987087 M 11.996185,9.6756766 C 11.039374,8.6342652 9.7864483,6.0382802 10.0344,0.03635787 m 6.53927,0.9459057 C 20.323709,6.225462 18.654281,12.67743 16.57947,18.389744 M 9.9999906,18.098828 C 10.386624,9.9922755 14.711104,4.1101274 16.676938,0.98226357 M 2.2397662,15.226523 C 1.860329,15.823087 0.58154197,16.012668 0.01481897,15.974528 M 1.1547627,8.1442028 c -1.06693803,0 -1.06693803,0 -1.06693803,0 M 3.4263162,1.3167025 C 3.3776562,1.0937484 3.4711882,0.51834607 3.3374452,0.19987087 M 8.0038071,9.6756766 C 8.9606166,8.6342652 10.213545,6.0382802 9.9655926,0.03635787 m -6.539276,0.9459057 C -0.32372243,6.225462 1.3457055,12.67743 3.4204878,18.389744 M 10.000018,18.098828 C 9.6133847,9.9922755 5.2889001,4.1101274 3.3230644,0.98226357" stroke="#000000" style="fill-opacity: 0; stroke-width: 1;" class="outline"></path></g></g><g transform="matrix(1,0,0,1,0,18)"><g transform="matrix(1 0 -2.2 1 39.6 0)" class="backCable"><path d="M 3.562728,18.351402 3.644043,18.316032 3.547102,18.050553 C 2.4024304,14.915774 1.7365185,12.256679 1.4990883,9.8724966 1.4324193,9.2030345 1.4321283,7.4314953 1.498587,6.8282117 1.6722442,5.2518351 2.057911,3.9142104 2.7096379,2.6278699 2.9625247,2.1287367 3.3245351,1.5103477 3.3638453,1.5103477 c 0.020201,0 0.8634283,1.3043786 1.4199534,2.1965092 1.8412679,2.9516239 3.1051592,5.6328124 3.914952,8.3050831 0.558309,1.84239 0.9194482,3.800568 1.0410259,5.644676 l 0.030486,0.462424 h 0.226331 0.2263324 l 0.01276,-0.128448 c 0.007,-0.07065 0.03127,-0.377003 0.05388,-0.680789 0.242708,-3.260207 1.233593,-6.669792 2.919204,-10.0448581 0.783035,-1.5678552 1.496329,-2.7848007 3.014823,-5.1435606 l 0.408752,-0.6349364 0.04744,0.069753 c 0.138428,0.2035243 0.473883,0.787144 0.618428,1.0759453 1.604393,3.2056181 1.686657,6.9869201 0.261521,12.0210548 -0.260463,0.920068 -0.74782,2.417293 -1.10197,3.38541 -0.05101,0.139444 -0.09275,0.262053 -0.09275,0.272452 0,0.01046 0.03757,0.03096 0.08349,0.04569 0.05843,0.01875 -1.875548,0.02727 -6.441805,0.02841 -5.5622886,0.0014 -6.5133018,-0.0037 -6.4439878,-0.03376 z" style="stroke-width: 1; opacity: 0.5;" class="color1" fill="pink"></path><path d="m 6.6472803,0.14838827 c -2.8504919,0 -3.0803603,0.00379 -3.0653469,0.042917 0.033412,0.087068 0.065296,0.3895331 0.065964,0.6254674 L 3.6486909,1.0607606 4.1779937,1.882531 C 6.0707923,4.8225615 7.0608632,6.5957705 7.9395412,8.6188233 L 8.1541226,9.1123617 8.2367768,8.9899703 C 8.96918,7.9024128 9.4761647,6.074619 9.6712983,3.8225127 9.7533953,2.8749901 9.7904511,1.2090191 9.7460053,0.43767697 l -0.016692,-0.2892887 z m 3.6113397,0 -0.0159,0.7264006 c -0.0186,0.81028933 0.01326,2.03427423 0.07312,2.79354263 0.179929,2.2821433 0.643249,4.025837 1.391605,5.2342164 0.06344,0.1024402 0.12382,0.1867663 0.133517,0.1867663 0.0097,0 0.06256,-0.1069309 0.117623,-0.2376302 0.35378,-0.8397893 0.991449,-2.1456995 1.509229,-3.089984 0.609767,-1.1120442 1.15221,-2.0080323 2.239602,-3.6987615 l 0.64454,-1.0021784 0.01589,-0.37273723 c 0.0086,-0.2048791 0.02413,-0.40947 0.03497,-0.4553912 l 0.01987,-0.084243 H 13.340654 Z M 0.11046987,8.3684767 l -0.01669,0.9314459 c -0.00891,0.5125305 -0.02215,1.9151944 -0.029406,3.1162104 -0.00726,1.201015 -0.019467,2.440216 -0.027816,2.7546 l -0.015895,0.572219 h 0.1986872 c 0.6473078,0 1.43473323,-0.244092 1.73493713,-0.538045 L 2.0790631,15.082516 1.9630299,14.674015 C 1.3515041,12.510477 1.0007983,10.396405 0.96959357,8.6911447 l -0.00556,-0.3083628 -0.4267802,-0.00715 z m 18.93409413,8.137e-4 -0.01749,0.4824127 c -0.0641,1.7421169 -0.36216,3.5244819 -0.944957,5.6562279 l -0.157359,0.576988 0.144642,0.135108 c 0.158947,0.147947 0.415888,0.282005 0.69779,0.363995 0.186839,0.05434 0.524576,0.124003 0.680304,0.140675 0.04946,0.0052 0.187219,0.012 0.30598,0.0143 l 0.21617,0.004 -0.01669,-1.291468 c -0.0092,-0.710012 -0.02404,-2.368461 -0.03337,-3.686046 l -0.01749,-2.3961771 h -0.42837 z" style="stroke-width: 1; opacity: 0.5;" class="color1" fill="pink"></path><path d="m 17.760231,15.226523 c 0.379437,0.596564 1.658223,0.786145 2.224945,0.748005 M 18.845234,8.1442028 c 1.066938,0 1.066938,0 1.066938,0 M 16.57368,1.3167025 C 16.62235,1.0937484 16.5288,0.51834607 16.66254,0.19987087 M 11.996185,9.6756766 C 11.039374,8.6342652 9.7864483,6.0382802 10.0344,0.03635787 m 6.53927,0.9459057 C 20.323709,6.225462 18.654281,12.67743 16.57947,18.389744 M 9.9999906,18.098828 C 10.386624,9.9922755 14.711104,4.1101274 16.676938,0.98226357 M 2.2397662,15.226523 C 1.860329,15.823087 0.58154197,16.012668 0.01481897,15.974528 M 1.1547627,8.1442028 c -1.06693803,0 -1.06693803,0 -1.06693803,0 M 3.4263162,1.3167025 C 3.3776562,1.0937484 3.4711882,0.51834607 3.3374452,0.19987087 M 8.0038071,9.6756766 C 8.9606166,8.6342652 10.213545,6.0382802 9.9655926,0.03635787 m -6.539276,0.9459057 C -0.32372243,6.225462 1.3457055,12.67743 3.4204878,18.389744 M 10.000018,18.098828 C 9.6133847,9.9922755 5.2889001,4.1101274 3.3230644,0.98226357" stroke="#000000" style="fill-opacity: 0; stroke-width: 1; opacity: 0.5;" class="outline"></path></g><g transform="matrix(1 0 -2.2 1 59.4 0)" class="backCable"><path d="M 3.562728,18.351402 3.644043,18.316032 3.547102,18.050553 C 2.4024304,14.915774 1.7365185,12.256679 1.4990883,9.8724966 1.4324193,9.2030345 1.4321283,7.4314953 1.498587,6.8282117 1.6722442,5.2518351 2.057911,3.9142104 2.7096379,2.6278699 2.9625247,2.1287367 3.3245351,1.5103477 3.3638453,1.5103477 c 0.020201,0 0.8634283,1.3043786 1.4199534,2.1965092 1.8412679,2.9516239 3.1051592,5.6328124 3.914952,8.3050831 0.558309,1.84239 0.9194482,3.800568 1.0410259,5.644676 l 0.030486,0.462424 h 0.226331 0.2263324 l 0.01276,-0.128448 c 0.007,-0.07065 0.03127,-0.377003 0.05388,-0.680789 0.242708,-3.260207 1.233593,-6.669792 2.919204,-10.0448581 0.783035,-1.5678552 1.496329,-2.7848007 3.014823,-5.1435606 l 0.408752,-0.6349364 0.04744,0.069753 c 0.138428,0.2035243 0.473883,0.787144 0.618428,1.0759453 1.604393,3.2056181 1.686657,6.9869201 0.261521,12.0210548 -0.260463,0.920068 -0.74782,2.417293 -1.10197,3.38541 -0.05101,0.139444 -0.09275,0.262053 -0.09275,0.272452 0,0.01046 0.03757,0.03096 0.08349,0.04569 0.05843,0.01875 -1.875548,0.02727 -6.441805,0.02841 -5.5622886,0.0014 -6.5133018,-0.0037 -6.4439878,-0.03376 z" style="stroke-width: 1; opacity: 0.5;" class="color1" fill="pink"></path><path d="m 6.6472803,0.14838827 c -2.8504919,0 -3.0803603,0.00379 -3.0653469,0.042917 0.033412,0.087068 0.065296,0.3895331 0.065964,0.6254674 L 3.6486909,1.0607606 4.1779937,1.882531 C 6.0707923,4.8225615 7.0608632,6.5957705 7.9395412,8.6188233 L 8.1541226,9.1123617 8.2367768,8.9899703 C 8.96918,7.9024128 9.4761647,6.074619 9.6712983,3.8225127 9.7533953,2.8749901 9.7904511,1.2090191 9.7460053,0.43767697 l -0.016692,-0.2892887 z m 3.6113397,0 -0.0159,0.7264006 c -0.0186,0.81028933 0.01326,2.03427423 0.07312,2.79354263 0.179929,2.2821433 0.643249,4.025837 1.391605,5.2342164 0.06344,0.1024402 0.12382,0.1867663 0.133517,0.1867663 0.0097,0 0.06256,-0.1069309 0.117623,-0.2376302 0.35378,-0.8397893 0.991449,-2.1456995 1.509229,-3.089984 0.609767,-1.1120442 1.15221,-2.0080323 2.239602,-3.6987615 l 0.64454,-1.0021784 0.01589,-0.37273723 c 0.0086,-0.2048791 0.02413,-0.40947 0.03497,-0.4553912 l 0.01987,-0.084243 H 13.340654 Z M 0.11046987,8.3684767 l -0.01669,0.9314459 c -0.00891,0.5125305 -0.02215,1.9151944 -0.029406,3.1162104 -0.00726,1.201015 -0.019467,2.440216 -0.027816,2.7546 l -0.015895,0.572219 h 0.1986872 c 0.6473078,0 1.43473323,-0.244092 1.73493713,-0.538045 L 2.0790631,15.082516 1.9630299,14.674015 C 1.3515041,12.510477 1.0007983,10.396405 0.96959357,8.6911447 l -0.00556,-0.3083628 -0.4267802,-0.00715 z m 18.93409413,8.137e-4 -0.01749,0.4824127 c -0.0641,1.7421169 -0.36216,3.5244819 -0.944957,5.6562279 l -0.157359,0.576988 0.144642,0.135108 c 0.158947,0.147947 0.415888,0.282005 0.69779,0.363995 0.186839,0.05434 0.524576,0.124003 0.680304,0.140675 0.04946,0.0052 0.187219,0.012 0.30598,0.0143 l 0.21617,0.004 -0.01669,-1.291468 c -0.0092,-0.710012 -0.02404,-2.368461 -0.03337,-3.686046 l -0.01749,-2.3961771 h -0.42837 z" style="stroke-width: 1; opacity: 0.5;" class="color1" fill="pink"></path><path d="m 17.760231,15.226523 c 0.379437,0.596564 1.658223,0.786145 2.224945,0.748005 M 18.845234,8.1442028 c 1.066938,0 1.066938,0 1.066938,0 M 16.57368,1.3167025 C 16.62235,1.0937484 16.5288,0.51834607 16.66254,0.19987087 M 11.996185,9.6756766 C 11.039374,8.6342652 9.7864483,6.0382802 10.0344,0.03635787 m 6.53927,0.9459057 C 20.323709,6.225462 18.654281,12.67743 16.57947,18.389744 M 9.9999906,18.098828 C 10.386624,9.9922755 14.711104,4.1101274 16.676938,0.98226357 M 2.2397662,15.226523 C 1.860329,15.823087 0.58154197,16.012668 0.01481897,15.974528 M 1.1547627,8.1442028 c -1.06693803,0 -1.06693803,0 -1.06693803,0 M 3.4263162,1.3167025 C 3.3776562,1.0937484 3.4711882,0.51834607 3.3374452,0.19987087 M 8.0038071,9.6756766 C 8.9606166,8.6342652 10.213545,6.0382802 9.9655926,0.03635787 m -6.539276,0.9459057 C -0.32372243,6.225462 1.3457055,12.67743 3.4204878,18.389744 M 10.000018,18.098828 C 9.6133847,9.9922755 5.2889001,4.1101274 3.3230644,0.98226357" stroke="#000000" style="fill-opacity: 0; stroke-width: 1; opacity: 0.5;" class="outline"></path></g></g><g transform="matrix(1,0,0,1,0,36)"><g transform="matrix(1,0,0,1,0,0)" class="notCable"><path d="M 3.562728,18.351402 3.644043,18.316032 3.547102,18.050553 C 2.4024304,14.915774 1.7365185,12.256679 1.4990883,9.8724966 1.4324193,9.2030345 1.4321283,7.4314953 1.498587,6.8282117 1.6722442,5.2518351 2.057911,3.9142104 2.7096379,2.6278699 2.9625247,2.1287367 3.3245351,1.5103477 3.3638453,1.5103477 c 0.020201,0 0.8634283,1.3043786 1.4199534,2.1965092 1.8412679,2.9516239 3.1051592,5.6328124 3.914952,8.3050831 0.558309,1.84239 0.9194482,3.800568 1.0410259,5.644676 l 0.030486,0.462424 h 0.226331 0.2263324 l 0.01276,-0.128448 c 0.007,-0.07065 0.03127,-0.377003 0.05388,-0.680789 0.242708,-3.260207 1.233593,-6.669792 2.919204,-10.0448581 0.783035,-1.5678552 1.496329,-2.7848007 3.014823,-5.1435606 l 0.408752,-0.6349364 0.04744,0.069753 c 0.138428,0.2035243 0.473883,0.787144 0.618428,1.0759453 1.604393,3.2056181 1.686657,6.9869201 0.261521,12.0210548 -0.260463,0.920068 -0.74782,2.417293 -1.10197,3.38541 -0.05101,0.139444 -0.09275,0.262053 -0.09275,0.272452 0,0.01046 0.03757,0.03096 0.08349,0.04569 0.05843,0.01875 -1.875548,0.02727 -6.441805,0.02841 -5.5622886,0.0014 -6.5133018,-0.0037 -6.4439878,-0.03376 z" style="stroke-width: 1;" class="color1" fill="pink"></path><path d="m 6.6472803,0.14838827 c -2.8504919,0 -3.0803603,0.00379 -3.0653469,0.042917 0.033412,0.087068 0.065296,0.3895331 0.065964,0.6254674 L 3.6486909,1.0607606 4.1779937,1.882531 C 6.0707923,4.8225615 7.0608632,6.5957705 7.9395412,8.6188233 L 8.1541226,9.1123617 8.2367768,8.9899703 C 8.96918,7.9024128 9.4761647,6.074619 9.6712983,3.8225127 9.7533953,2.8749901 9.7904511,1.2090191 9.7460053,0.43767697 l -0.016692,-0.2892887 z m 3.6113397,0 -0.0159,0.7264006 c -0.0186,0.81028933 0.01326,2.03427423 0.07312,2.79354263 0.179929,2.2821433 0.643249,4.025837 1.391605,5.2342164 0.06344,0.1024402 0.12382,0.1867663 0.133517,0.1867663 0.0097,0 0.06256,-0.1069309 0.117623,-0.2376302 0.35378,-0.8397893 0.991449,-2.1456995 1.509229,-3.089984 0.609767,-1.1120442 1.15221,-2.0080323 2.239602,-3.6987615 l 0.64454,-1.0021784 0.01589,-0.37273723 c 0.0086,-0.2048791 0.02413,-0.40947 0.03497,-0.4553912 l 0.01987,-0.084243 H 13.340654 Z M 0.11046987,8.3684767 l -0.01669,0.9314459 c -0.00891,0.5125305 -0.02215,1.9151944 -0.029406,3.1162104 -0.00726,1.201015 -0.019467,2.440216 -0.027816,2.7546 l -0.015895,0.572219 h 0.1986872 c 0.6473078,0 1.43473323,-0.244092 1.73493713,-0.538045 L 2.0790631,15.082516 1.9630299,14.674015 C 1.3515041,12.510477 1.0007983,10.396405 0.96959357,8.6911447 l -0.00556,-0.3083628 -0.4267802,-0.00715 z m 18.93409413,8.137e-4 -0.01749,0.4824127 c -0.0641,1.7421169 -0.36216,3.5244819 -0.944957,5.6562279 l -0.157359,0.576988 0.144642,0.135108 c 0.158947,0.147947 0.415888,0.282005 0.69779,0.363995 0.186839,0.05434 0.524576,0.124003 0.680304,0.140675 0.04946,0.0052 0.187219,0.012 0.30598,0.0143 l 0.21617,0.004 -0.01669,-1.291468 c -0.0092,-0.710012 -0.02404,-2.368461 -0.03337,-3.686046 l -0.01749,-2.3961771 h -0.42837 z" style="stroke-width: 1;" class="color1" fill="pink"></path><path d="m 17.760231,15.226523 c 0.379437,0.596564 1.658223,0.786145 2.224945,0.748005 M 18.845234,8.1442028 c 1.066938,0 1.066938,0 1.066938,0 M 16.57368,1.3167025 C 16.62235,1.0937484 16.5288,0.51834607 16.66254,0.19987087 M 11.996185,9.6756766 C 11.039374,8.6342652 9.7864483,6.0382802 10.0344,0.03635787 m 6.53927,0.9459057 C 20.323709,6.225462 18.654281,12.67743 16.57947,18.389744 M 9.9999906,18.098828 C 10.386624,9.9922755 14.711104,4.1101274 16.676938,0.98226357 M 2.2397662,15.226523 C 1.860329,15.823087 0.58154197,16.012668 0.01481897,15.974528 M 1.1547627,8.1442028 c -1.06693803,0 -1.06693803,0 -1.06693803,0 M 3.4263162,1.3167025 C 3.3776562,1.0937484 3.4711882,0.51834607 3.3374452,0.19987087 M 8.0038071,9.6756766 C 8.9606166,8.6342652 10.213545,6.0382802 9.9655926,0.03635787 m -6.539276,0.9459057 C -0.32372243,6.225462 1.3457055,12.67743 3.4204878,18.389744 M 10.000018,18.098828 C 9.6133847,9.9922755 5.2889001,4.1101274 3.3230644,0.98226357" stroke="#000000" style="fill-opacity: 0; stroke-width: 1;" class="outline"></path></g><g transform="matrix(1,0,0,1,19.8,0)" class="notCable"><path d="M 3.562728,18.351402 3.644043,18.316032 3.547102,18.050553 C 2.4024304,14.915774 1.7365185,12.256679 1.4990883,9.8724966 1.4324193,9.2030345 1.4321283,7.4314953 1.498587,6.8282117 1.6722442,5.2518351 2.057911,3.9142104 2.7096379,2.6278699 2.9625247,2.1287367 3.3245351,1.5103477 3.3638453,1.5103477 c 0.020201,0 0.8634283,1.3043786 1.4199534,2.1965092 1.8412679,2.9516239 3.1051592,5.6328124 3.914952,8.3050831 0.558309,1.84239 0.9194482,3.800568 1.0410259,5.644676 l 0.030486,0.462424 h 0.226331 0.2263324 l 0.01276,-0.128448 c 0.007,-0.07065 0.03127,-0.377003 0.05388,-0.680789 0.242708,-3.260207 1.233593,-6.669792 2.919204,-10.0448581 0.783035,-1.5678552 1.496329,-2.7848007 3.014823,-5.1435606 l 0.408752,-0.6349364 0.04744,0.069753 c 0.138428,0.2035243 0.473883,0.787144 0.618428,1.0759453 1.604393,3.2056181 1.686657,6.9869201 0.261521,12.0210548 -0.260463,0.920068 -0.74782,2.417293 -1.10197,3.38541 -0.05101,0.139444 -0.09275,0.262053 -0.09275,0.272452 0,0.01046 0.03757,0.03096 0.08349,0.04569 0.05843,0.01875 -1.875548,0.02727 -6.441805,0.02841 -5.5622886,0.0014 -6.5133018,-0.0037 -6.4439878,-0.03376 z" style="stroke-width: 1;" class="color1" fill="pink"></path><path d="m 6.6472803,0.14838827 c -2.8504919,0 -3.0803603,0.00379 -3.0653469,0.042917 0.033412,0.087068 0.065296,0.3895331 0.065964,0.6254674 L 3.6486909,1.0607606 4.1779937,1.882531 C 6.0707923,4.8225615 7.0608632,6.5957705 7.9395412,8.6188233 L 8.1541226,9.1123617 8.2367768,8.9899703 C 8.96918,7.9024128 9.4761647,6.074619 9.6712983,3.8225127 9.7533953,2.8749901 9.7904511,1.2090191 9.7460053,0.43767697 l -0.016692,-0.2892887 z m 3.6113397,0 -0.0159,0.7264006 c -0.0186,0.81028933 0.01326,2.03427423 0.07312,2.79354263 0.179929,2.2821433 0.643249,4.025837 1.391605,5.2342164 0.06344,0.1024402 0.12382,0.1867663 0.133517,0.1867663 0.0097,0 0.06256,-0.1069309 0.117623,-0.2376302 0.35378,-0.8397893 0.991449,-2.1456995 1.509229,-3.089984 0.609767,-1.1120442 1.15221,-2.0080323 2.239602,-3.6987615 l 0.64454,-1.0021784 0.01589,-0.37273723 c 0.0086,-0.2048791 0.02413,-0.40947 0.03497,-0.4553912 l 0.01987,-0.084243 H 13.340654 Z M 0.11046987,8.3684767 l -0.01669,0.9314459 c -0.00891,0.5125305 -0.02215,1.9151944 -0.029406,3.1162104 -0.00726,1.201015 -0.019467,2.440216 -0.027816,2.7546 l -0.015895,0.572219 h 0.1986872 c 0.6473078,0 1.43473323,-0.244092 1.73493713,-0.538045 L 2.0790631,15.082516 1.9630299,14.674015 C 1.3515041,12.510477 1.0007983,10.396405 0.96959357,8.6911447 l -0.00556,-0.3083628 -0.4267802,-0.00715 z m 18.93409413,8.137e-4 -0.01749,0.4824127 c -0.0641,1.7421169 -0.36216,3.5244819 -0.944957,5.6562279 l -0.157359,0.576988 0.144642,0.135108 c 0.158947,0.147947 0.415888,0.282005 0.69779,0.363995 0.186839,0.05434 0.524576,0.124003 0.680304,0.140675 0.04946,0.0052 0.187219,0.012 0.30598,0.0143 l 0.21617,0.004 -0.01669,-1.291468 c -0.0092,-0.710012 -0.02404,-2.368461 -0.03337,-3.686046 l -0.01749,-2.3961771 h -0.42837 z" style="stroke-width: 1;" class="color1" fill="pink"></path><path d="m 17.760231,15.226523 c 0.379437,0.596564 1.658223,0.786145 2.224945,0.748005 M 18.845234,8.1442028 c 1.066938,0 1.066938,0 1.066938,0 M 16.57368,1.3167025 C 16.62235,1.0937484 16.5288,0.51834607 16.66254,0.19987087 M 11.996185,9.6756766 C 11.039374,8.6342652 9.7864483,6.0382802 10.0344,0.03635787 m 6.53927,0.9459057 C 20.323709,6.225462 18.654281,12.67743 16.57947,18.389744 M 9.9999906,18.098828 C 10.386624,9.9922755 14.711104,4.1101274 16.676938,0.98226357 M 2.2397662,15.226523 C 1.860329,15.823087 0.58154197,16.012668 0.01481897,15.974528 M 1.1547627,8.1442028 c -1.06693803,0 -1.06693803,0 -1.06693803,0 M 3.4263162,1.3167025 C 3.3776562,1.0937484 3.4711882,0.51834607 3.3374452,0.19987087 M 8.0038071,9.6756766 C 8.9606166,8.6342652 10.213545,6.0382802 9.9655926,0.03635787 m -6.539276,0.9459057 C -0.32372243,6.225462 1.3457055,12.67743 3.4204878,18.389744 M 10.000018,18.098828 C 9.6133847,9.9922755 5.2889001,4.1101274 3.3230644,0.98226357" stroke="#000000" style="fill-opacity: 0; stroke-width: 1;" class="outline"></path></g><g transform="matrix(1,0,0,1,39.6,0)" class="notCable"><path d="M 3.562728,18.351402 3.644043,18.316032 3.547102,18.050553 C 2.4024304,14.915774 1.7365185,12.256679 1.4990883,9.8724966 1.4324193,9.2030345 1.4321283,7.4314953 1.498587,6.8282117 1.6722442,5.2518351 2.057911,3.9142104 2.7096379,2.6278699 2.9625247,2.1287367 3.3245351,1.5103477 3.3638453,1.5103477 c 0.020201,0 0.8634283,1.3043786 1.4199534,2.1965092 1.8412679,2.9516239 3.1051592,5.6328124 3.914952,8.3050831 0.558309,1.84239 0.9194482,3.800568 1.0410259,5.644676 l 0.030486,0.462424 h 0.226331 0.2263324 l 0.01276,-0.128448 c 0.007,-0.07065 0.03127,-0.377003 0.05388,-0.680789 0.242708,-3.260207 1.233593,-6.669792 2.919204,-10.0448581 0.783035,-1.5678552 1.496329,-2.7848007 3.014823,-5.1435606 l 0.408752,-0.6349364 0.04744,0.069753 c 0.138428,0.2035243 0.473883,0.787144 0.618428,1.0759453 1.604393,3.2056181 1.686657,6.9869201 0.261521,12.0210548 -0.260463,0.920068 -0.74782,2.417293 -1.10197,3.38541 -0.05101,0.139444 -0.09275,0.262053 -0.09275,0.272452 0,0.01046 0.03757,0.03096 0.08349,0.04569 0.05843,0.01875 -1.875548,0.02727 -6.441805,0.02841 -5.5622886,0.0014 -6.5133018,-0.0037 -6.4439878,-0.03376 z" style="stroke-width: 1;" class="color0" fill="skyblue"></path><path d="m 6.6472803,0.14838827 c -2.8504919,0 -3.0803603,0.00379 -3.0653469,0.042917 0.033412,0.087068 0.065296,0.3895331 0.065964,0.6254674 L 3.6486909,1.0607606 4.1779937,1.882531 C 6.0707923,4.8225615 7.0608632,6.5957705 7.9395412,8.6188233 L 8.1541226,9.1123617 8.2367768,8.9899703 C 8.96918,7.9024128 9.4761647,6.074619 9.6712983,3.8225127 9.7533953,2.8749901 9.7904511,1.2090191 9.7460053,0.43767697 l -0.016692,-0.2892887 z m 3.6113397,0 -0.0159,0.7264006 c -0.0186,0.81028933 0.01326,2.03427423 0.07312,2.79354263 0.179929,2.2821433 0.643249,4.025837 1.391605,5.2342164 0.06344,0.1024402 0.12382,0.1867663 0.133517,0.1867663 0.0097,0 0.06256,-0.1069309 0.117623,-0.2376302 0.35378,-0.8397893 0.991449,-2.1456995 1.509229,-3.089984 0.609767,-1.1120442 1.15221,-2.0080323 2.239602,-3.6987615 l 0.64454,-1.0021784 0.01589,-0.37273723 c 0.0086,-0.2048791 0.02413,-0.40947 0.03497,-0.4553912 l 0.01987,-0.084243 H 13.340654 Z M 0.11046987,8.3684767 l -0.01669,0.9314459 c -0.00891,0.5125305 -0.02215,1.9151944 -0.029406,3.1162104 -0.00726,1.201015 -0.019467,2.440216 -0.027816,2.7546 l -0.015895,0.572219 h 0.1986872 c 0.6473078,0 1.43473323,-0.244092 1.73493713,-0.538045 L 2.0790631,15.082516 1.9630299,14.674015 C 1.3515041,12.510477 1.0007983,10.396405 0.96959357,8.6911447 l -0.00556,-0.3083628 -0.4267802,-0.00715 z m 18.93409413,8.137e-4 -0.01749,0.4824127 c -0.0641,1.7421169 -0.36216,3.5244819 -0.944957,5.6562279 l -0.157359,0.576988 0.144642,0.135108 c 0.158947,0.147947 0.415888,0.282005 0.69779,0.363995 0.186839,0.05434 0.524576,0.124003 0.680304,0.140675 0.04946,0.0052 0.187219,0.012 0.30598,0.0143 l 0.21617,0.004 -0.01669,-1.291468 c -0.0092,-0.710012 -0.02404,-2.368461 -0.03337,-3.686046 l -0.01749,-2.3961771 h -0.42837 z" style="stroke-width: 1;" class="color0" fill="skyblue"></path><path d="m 17.760231,15.226523 c 0.379437,0.596564 1.658223,0.786145 2.224945,0.748005 M 18.845234,8.1442028 c 1.066938,0 1.066938,0 1.066938,0 M 16.57368,1.3167025 C 16.62235,1.0937484 16.5288,0.51834607 16.66254,0.19987087 M 11.996185,9.6756766 C 11.039374,8.6342652 9.7864483,6.0382802 10.0344,0.03635787 m 6.53927,0.9459057 C 20.323709,6.225462 18.654281,12.67743 16.57947,18.389744 M 9.9999906,18.098828 C 10.386624,9.9922755 14.711104,4.1101274 16.676938,0.98226357 M 2.2397662,15.226523 C 1.860329,15.823087 0.58154197,16.012668 0.01481897,15.974528 M 1.1547627,8.1442028 c -1.06693803,0 -1.06693803,0 -1.06693803,0 M 3.4263162,1.3167025 C 3.3776562,1.0937484 3.4711882,0.51834607 3.3374452,0.19987087 M 8.0038071,9.6756766 C 8.9606166,8.6342652 10.213545,6.0382802 9.9655926,0.03635787 m -6.539276,0.9459057 C -0.32372243,6.225462 1.3457055,12.67743 3.4204878,18.389744 M 10.000018,18.098828 C 9.6133847,9.9922755 5.2889001,4.1101274 3.3230644,0.98226357" stroke="#000000" style="fill-opacity: 0; stroke-width: 1;" class="outline"></path></g><g transform="matrix(1,0,0,1,59.4,0)" class="notCable"><path d="M 3.562728,18.351402 3.644043,18.316032 3.547102,18.050553 C 2.4024304,14.915774 1.7365185,12.256679 1.4990883,9.8724966 1.4324193,9.2030345 1.4321283,7.4314953 1.498587,6.8282117 1.6722442,5.2518351 2.057911,3.9142104 2.7096379,2.6278699 2.9625247,2.1287367 3.3245351,1.5103477 3.3638453,1.5103477 c 0.020201,0 0.8634283,1.3043786 1.4199534,2.1965092 1.8412679,2.9516239 3.1051592,5.6328124 3.914952,8.3050831 0.558309,1.84239 0.9194482,3.800568 1.0410259,5.644676 l 0.030486,0.462424 h 0.226331 0.2263324 l 0.01276,-0.128448 c 0.007,-0.07065 0.03127,-0.377003 0.05388,-0.680789 0.242708,-3.260207 1.233593,-6.669792 2.919204,-10.0448581 0.783035,-1.5678552 1.496329,-2.7848007 3.014823,-5.1435606 l 0.408752,-0.6349364 0.04744,0.069753 c 0.138428,0.2035243 0.473883,0.787144 0.618428,1.0759453 1.604393,3.2056181 1.686657,6.9869201 0.261521,12.0210548 -0.260463,0.920068 -0.74782,2.417293 -1.10197,3.38541 -0.05101,0.139444 -0.09275,0.262053 -0.09275,0.272452 0,0.01046 0.03757,0.03096 0.08349,0.04569 0.05843,0.01875 -1.875548,0.02727 -6.441805,0.02841 -5.5622886,0.0014 -6.5133018,-0.0037 -6.4439878,-0.03376 z" style="stroke-width: 1;" class="color0" fill="skyblue"></path><path d="m 6.6472803,0.14838827 c -2.8504919,0 -3.0803603,0.00379 -3.0653469,0.042917 0.033412,0.087068 0.065296,0.3895331 0.065964,0.6254674 L 3.6486909,1.0607606 4.1779937,1.882531 C 6.0707923,4.8225615 7.0608632,6.5957705 7.9395412,8.6188233 L 8.1541226,9.1123617 8.2367768,8.9899703 C 8.96918,7.9024128 9.4761647,6.074619 9.6712983,3.8225127 9.7533953,2.8749901 9.7904511,1.2090191 9.7460053,0.43767697 l -0.016692,-0.2892887 z m 3.6113397,0 -0.0159,0.7264006 c -0.0186,0.81028933 0.01326,2.03427423 0.07312,2.79354263 0.179929,2.2821433 0.643249,4.025837 1.391605,5.2342164 0.06344,0.1024402 0.12382,0.1867663 0.133517,0.1867663 0.0097,0 0.06256,-0.1069309 0.117623,-0.2376302 0.35378,-0.8397893 0.991449,-2.1456995 1.509229,-3.089984 0.609767,-1.1120442 1.15221,-2.0080323 2.239602,-3.6987615 l 0.64454,-1.0021784 0.01589,-0.37273723 c 0.0086,-0.2048791 0.02413,-0.40947 0.03497,-0.4553912 l 0.01987,-0.084243 H 13.340654 Z M 0.11046987,8.3684767 l -0.01669,0.9314459 c -0.00891,0.5125305 -0.02215,1.9151944 -0.029406,3.1162104 -0.00726,1.201015 -0.019467,2.440216 -0.027816,2.7546 l -0.015895,0.572219 h 0.1986872 c 0.6473078,0 1.43473323,-0.244092 1.73493713,-0.538045 L 2.0790631,15.082516 1.9630299,14.674015 C 1.3515041,12.510477 1.0007983,10.396405 0.96959357,8.6911447 l -0.00556,-0.3083628 -0.4267802,-0.00715 z m 18.93409413,8.137e-4 -0.01749,0.4824127 c -0.0641,1.7421169 -0.36216,3.5244819 -0.944957,5.6562279 l -0.157359,0.576988 0.144642,0.135108 c 0.158947,0.147947 0.415888,0.282005 0.69779,0.363995 0.186839,0.05434 0.524576,0.124003 0.680304,0.140675 0.04946,0.0052 0.187219,0.012 0.30598,0.0143 l 0.21617,0.004 -0.01669,-1.291468 c -0.0092,-0.710012 -0.02404,-2.368461 -0.03337,-3.686046 l -0.01749,-2.3961771 h -0.42837 z" style="stroke-width: 1;" class="color0" fill="skyblue"></path><path d="m 17.760231,15.226523 c 0.379437,0.596564 1.658223,0.786145 2.224945,0.748005 M 18.845234,8.1442028 c 1.066938,0 1.066938,0 1.066938,0 M 16.57368,1.3167025 C 16.62235,1.0937484 16.5288,0.51834607 16.66254,0.19987087 M 11.996185,9.6756766 C 11.039374,8.6342652 9.7864483,6.0382802 10.0344,0.03635787 m 6.53927,0.9459057 C 20.323709,6.225462 18.654281,12.67743 16.57947,18.389744 M 9.9999906,18.098828 C 10.386624,9.9922755 14.711104,4.1101274 16.676938,0.98226357 M 2.2397662,15.226523 C 1.860329,15.823087 0.58154197,16.012668 0.01481897,15.974528 M 1.1547627,8.1442028 c -1.06693803,0 -1.06693803,0 -1.06693803,0 M 3.4263162,1.3167025 C 3.3776562,1.0937484 3.4711882,0.51834607 3.3374452,0.19987087 M 8.0038071,9.6756766 C 8.9606166,8.6342652 10.213545,6.0382802 9.9655926,0.03635787 m -6.539276,0.9459057 C -0.32372243,6.225462 1.3457055,12.67743 3.4204878,18.389744 M 10.000018,18.098828 C 9.6133847,9.9922755 5.2889001,4.1101274 3.3230644,0.98226357" stroke="#000000" style="fill-opacity: 0; stroke-width: 1;" class="outline"></path></g></g><g transform="matrix(1,0,2.2,1,0,18)" class="frontCable" fillOpacity="100"><path d="M 3.562728,18.351402 3.644043,18.316032 3.547102,18.050553 C 2.4024304,14.915774 1.7365185,12.256679 1.4990883,9.8724966 1.4324193,9.2030345 1.4321283,7.4314953 1.498587,6.8282117 1.6722442,5.2518351 2.057911,3.9142104 2.7096379,2.6278699 2.9625247,2.1287367 3.3245351,1.5103477 3.3638453,1.5103477 c 0.020201,0 0.8634283,1.3043786 1.4199534,2.1965092 1.8412679,2.9516239 3.1051592,5.6328124 3.914952,8.3050831 0.558309,1.84239 0.9194482,3.800568 1.0410259,5.644676 l 0.030486,0.462424 h 0.226331 0.2263324 l 0.01276,-0.128448 c 0.007,-0.07065 0.03127,-0.377003 0.05388,-0.680789 0.242708,-3.260207 1.233593,-6.669792 2.919204,-10.0448581 0.783035,-1.5678552 1.496329,-2.7848007 3.014823,-5.1435606 l 0.408752,-0.6349364 0.04744,0.069753 c 0.138428,0.2035243 0.473883,0.787144 0.618428,1.0759453 1.604393,3.2056181 1.686657,6.9869201 0.261521,12.0210548 -0.260463,0.920068 -0.74782,2.417293 -1.10197,3.38541 -0.05101,0.139444 -0.09275,0.262053 -0.09275,0.272452 0,0.01046 0.03757,0.03096 0.08349,0.04569 0.05843,0.01875 -1.875548,0.02727 -6.441805,0.02841 -5.5622886,0.0014 -6.5133018,-0.0037 -6.4439878,-0.03376 z" style="stroke-width: 1;" class="color0" fill="skyblue"></path><path d="m 6.6472803,0.14838827 c -2.8504919,0 -3.0803603,0.00379 -3.0653469,0.042917 0.033412,0.087068 0.065296,0.3895331 0.065964,0.6254674 L 3.6486909,1.0607606 4.1779937,1.882531 C 6.0707923,4.8225615 7.0608632,6.5957705 7.9395412,8.6188233 L 8.1541226,9.1123617 8.2367768,8.9899703 C 8.96918,7.9024128 9.4761647,6.074619 9.6712983,3.8225127 9.7533953,2.8749901 9.7904511,1.2090191 9.7460053,0.43767697 l -0.016692,-0.2892887 z m 3.6113397,0 -0.0159,0.7264006 c -0.0186,0.81028933 0.01326,2.03427423 0.07312,2.79354263 0.179929,2.2821433 0.643249,4.025837 1.391605,5.2342164 0.06344,0.1024402 0.12382,0.1867663 0.133517,0.1867663 0.0097,0 0.06256,-0.1069309 0.117623,-0.2376302 0.35378,-0.8397893 0.991449,-2.1456995 1.509229,-3.089984 0.609767,-1.1120442 1.15221,-2.0080323 2.239602,-3.6987615 l 0.64454,-1.0021784 0.01589,-0.37273723 c 0.0086,-0.2048791 0.02413,-0.40947 0.03497,-0.4553912 l 0.01987,-0.084243 H 13.340654 Z M 0.11046987,8.3684767 l -0.01669,0.9314459 c -0.00891,0.5125305 -0.02215,1.9151944 -0.029406,3.1162104 -0.00726,1.201015 -0.019467,2.440216 -0.027816,2.7546 l -0.015895,0.572219 h 0.1986872 c 0.6473078,0 1.43473323,-0.244092 1.73493713,-0.538045 L 2.0790631,15.082516 1.9630299,14.674015 C 1.3515041,12.510477 1.0007983,10.396405 0.96959357,8.6911447 l -0.00556,-0.3083628 -0.4267802,-0.00715 z m 18.93409413,8.137e-4 -0.01749,0.4824127 c -0.0641,1.7421169 -0.36216,3.5244819 -0.944957,5.6562279 l -0.157359,0.576988 0.144642,0.135108 c 0.158947,0.147947 0.415888,0.282005 0.69779,0.363995 0.186839,0.05434 0.524576,0.124003 0.680304,0.140675 0.04946,0.0052 0.187219,0.012 0.30598,0.0143 l 0.21617,0.004 -0.01669,-1.291468 c -0.0092,-0.710012 -0.02404,-2.368461 -0.03337,-3.686046 l -0.01749,-2.3961771 h -0.42837 z" style="stroke-width: 1;" class="color0" fill="skyblue"></path><path d="m 17.760231,15.226523 c 0.379437,0.596564 1.658223,0.786145 2.224945,0.748005 M 18.845234,8.1442028 c 1.066938,0 1.066938,0 1.066938,0 M 16.57368,1.3167025 C 16.62235,1.0937484 16.5288,0.51834607 16.66254,0.19987087 M 11.996185,9.6756766 C 11.039374,8.6342652 9.7864483,6.0382802 10.0344,0.03635787 m 6.53927,0.9459057 C 20.323709,6.225462 18.654281,12.67743 16.57947,18.389744 M 9.9999906,18.098828 C 10.386624,9.9922755 14.711104,4.1101274 16.676938,0.98226357 M 2.2397662,15.226523 C 1.860329,15.823087 0.58154197,16.012668 0.01481897,15.974528 M 1.1547627,8.1442028 c -1.06693803,0 -1.06693803,0 -1.06693803,0 M 3.4263162,1.3167025 C 3.3776562,1.0937484 3.4711882,0.51834607 3.3374452,0.19987087 M 8.0038071,9.6756766 C 8.9606166,8.6342652 10.213545,6.0382802 9.9655926,0.03635787 m -6.539276,0.9459057 C -0.32372243,6.225462 1.3457055,12.67743 3.4204878,18.389744 M 10.000018,18.098828 C 9.6133847,9.9922755 5.2889001,4.1101274 3.3230644,0.98226357" stroke="#000000" style="fill-opacity: 0; stroke-width: 1;" class="outline"></path></g><g transform="matrix(1,0,2.2,1,19.8,18)" class="frontCable" fillOpacity="100"><path d="M 3.562728,18.351402 3.644043,18.316032 3.547102,18.050553 C 2.4024304,14.915774 1.7365185,12.256679 1.4990883,9.8724966 1.4324193,9.2030345 1.4321283,7.4314953 1.498587,6.8282117 1.6722442,5.2518351 2.057911,3.9142104 2.7096379,2.6278699 2.9625247,2.1287367 3.3245351,1.5103477 3.3638453,1.5103477 c 0.020201,0 0.8634283,1.3043786 1.4199534,2.1965092 1.8412679,2.9516239 3.1051592,5.6328124 3.914952,8.3050831 0.558309,1.84239 0.9194482,3.800568 1.0410259,5.644676 l 0.030486,0.462424 h 0.226331 0.2263324 l 0.01276,-0.128448 c 0.007,-0.07065 0.03127,-0.377003 0.05388,-0.680789 0.242708,-3.260207 1.233593,-6.669792 2.919204,-10.0448581 0.783035,-1.5678552 1.496329,-2.7848007 3.014823,-5.1435606 l 0.408752,-0.6349364 0.04744,0.069753 c 0.138428,0.2035243 0.473883,0.787144 0.618428,1.0759453 1.604393,3.2056181 1.686657,6.9869201 0.261521,12.0210548 -0.260463,0.920068 -0.74782,2.417293 -1.10197,3.38541 -0.05101,0.139444 -0.09275,0.262053 -0.09275,0.272452 0,0.01046 0.03757,0.03096 0.08349,0.04569 0.05843,0.01875 -1.875548,0.02727 -6.441805,0.02841 -5.5622886,0.0014 -6.5133018,-0.0037 -6.4439878,-0.03376 z" style="stroke-width: 1;" class="color0" fill="skyblue"></path><path d="m 6.6472803,0.14838827 c -2.8504919,0 -3.0803603,0.00379 -3.0653469,0.042917 0.033412,0.087068 0.065296,0.3895331 0.065964,0.6254674 L 3.6486909,1.0607606 4.1779937,1.882531 C 6.0707923,4.8225615 7.0608632,6.5957705 7.9395412,8.6188233 L 8.1541226,9.1123617 8.2367768,8.9899703 C 8.96918,7.9024128 9.4761647,6.074619 9.6712983,3.8225127 9.7533953,2.8749901 9.7904511,1.2090191 9.7460053,0.43767697 l -0.016692,-0.2892887 z m 3.6113397,0 -0.0159,0.7264006 c -0.0186,0.81028933 0.01326,2.03427423 0.07312,2.79354263 0.179929,2.2821433 0.643249,4.025837 1.391605,5.2342164 0.06344,0.1024402 0.12382,0.1867663 0.133517,0.1867663 0.0097,0 0.06256,-0.1069309 0.117623,-0.2376302 0.35378,-0.8397893 0.991449,-2.1456995 1.509229,-3.089984 0.609767,-1.1120442 1.15221,-2.0080323 2.239602,-3.6987615 l 0.64454,-1.0021784 0.01589,-0.37273723 c 0.0086,-0.2048791 0.02413,-0.40947 0.03497,-0.4553912 l 0.01987,-0.084243 H 13.340654 Z M 0.11046987,8.3684767 l -0.01669,0.9314459 c -0.00891,0.5125305 -0.02215,1.9151944 -0.029406,3.1162104 -0.00726,1.201015 -0.019467,2.440216 -0.027816,2.7546 l -0.015895,0.572219 h 0.1986872 c 0.6473078,0 1.43473323,-0.244092 1.73493713,-0.538045 L 2.0790631,15.082516 1.9630299,14.674015 C 1.3515041,12.510477 1.0007983,10.396405 0.96959357,8.6911447 l -0.00556,-0.3083628 -0.4267802,-0.00715 z m 18.93409413,8.137e-4 -0.01749,0.4824127 c -0.0641,1.7421169 -0.36216,3.5244819 -0.944957,5.6562279 l -0.157359,0.576988 0.144642,0.135108 c 0.158947,0.147947 0.415888,0.282005 0.69779,0.363995 0.186839,0.05434 0.524576,0.124003 0.680304,0.140675 0.04946,0.0052 0.187219,0.012 0.30598,0.0143 l 0.21617,0.004 -0.01669,-1.291468 c -0.0092,-0.710012 -0.02404,-2.368461 -0.03337,-3.686046 l -0.01749,-2.3961771 h -0.42837 z" style="stroke-width: 1;" class="color0" fill="skyblue"></path><path d="m 17.760231,15.226523 c 0.379437,0.596564 1.658223,0.786145 2.224945,0.748005 M 18.845234,8.1442028 c 1.066938,0 1.066938,0 1.066938,0 M 16.57368,1.3167025 C 16.62235,1.0937484 16.5288,0.51834607 16.66254,0.19987087 M 11.996185,9.6756766 C 11.039374,8.6342652 9.7864483,6.0382802 10.0344,0.03635787 m 6.53927,0.9459057 C 20.323709,6.225462 18.654281,12.67743 16.57947,18.389744 M 9.9999906,18.098828 C 10.386624,9.9922755 14.711104,4.1101274 16.676938,0.98226357 M 2.2397662,15.226523 C 1.860329,15.823087 0.58154197,16.012668 0.01481897,15.974528 M 1.1547627,8.1442028 c -1.06693803,0 -1.06693803,0 -1.06693803,0 M 3.4263162,1.3167025 C 3.3776562,1.0937484 3.4711882,0.51834607 3.3374452,0.19987087 M 8.0038071,9.6756766 C 8.9606166,8.6342652 10.213545,6.0382802 9.9655926,0.03635787 m -6.539276,0.9459057 C -0.32372243,6.225462 1.3457055,12.67743 3.4204878,18.389744 M 10.000018,18.098828 C 9.6133847,9.9922755 5.2889001,4.1101274 3.3230644,0.98226357" stroke="#000000" style="fill-opacity: 0; stroke-width: 1;" class="outline"></path></g></svg>