<?xml version="1.0" encoding="UTF-8" standalone="no"?>
<!-- Created with Inkscape (http://www.inkscape.org/) -->

<svg
   xmlns:dc="http://purl.org/dc/elements/1.1/"
   xmlns:cc="http://creativecommons.org/ns#"
   xmlns:rdf="http://www.w3.org/1999/02/22-rdf-syntax-ns#"
   xmlns:svg="http://www.w3.org/2000/svg"
   xmlns="http://www.w3.org/2000/svg"
   xmlns:sodipodi="http://sodipodi.sourceforge.net/DTD/sodipodi-0.dtd"
   xmlns:inkscape="http://www.inkscape.org/namespaces/inkscape"
   width="210mm"
   height="297mm"
   viewBox="0 0 210 297"
   version="1.1"
   id="svg1520"
   inkscape:version="0.92.3 (2405546, 2018-03-11)"
   sodipodi:docname="knit_color2.svg">
  <defs
     id="defs1514" />
  <sodipodi:namedview
     id="base"
     pagecolor="#ffffff"
     bordercolor="#666666"
     borderopacity="1.0"
     inkscape:pageopacity="0.0"
     inkscape:pageshadow="2"
     inkscape:zoom="7.919596"
     inkscape:cx="21.682597"
     inkscape:cy="1109.2163"
     inkscape:document-units="mm"
     inkscape:current-layer="layer4"
     showgrid="false"
     inkscape:window-width="958"
     inkscape:window-height="1008"
     inkscape:window-x="-7"
     inkscape:window-y="0"
     inkscape:window-maximized="0"
     inkscape:measure-start="0,0"
     inkscape:measure-end="0,0"
     inkscape:snap-grids="false" />
  <metadata
     id="metadata1517">
    <rdf:RDF>
      <cc:Work
         rdf:about="">
        <dc:format>image/svg+xml</dc:format>
        <dc:type
           rdf:resource="http://purl.org/dc/dcmitype/StillImage" />
        <dc:title></dc:title>
      </cc:Work>
    </rdf:RDF>
  </metadata>
  <g
     inkscape:label="Layer 1"
     inkscape:groupmode="layer"
     id="layer1">
    <path
       id="knit"
       style="display:inline;fill:none;stroke:#000000;stroke-width:0.287;stroke-linecap:butt;stroke-linejoin:miter;stroke-miterlimit:4;stroke-dasharray:none;stroke-opacity:1"
       d="m 11.54812,9.8925219 c 0.246719,0.3879001 1.078215,0.5111701 1.446711,0.4863701 M 12.253614,5.2874319 c 0.693748,0 0.693748,0 0.693748,0 M 10.776596,0.84803187 c 0.03165,-0.14497 -0.02918,-0.51911 0.05778,-0.72619 M 7.8002003,6.2832319 c -0.622141,-0.67715 -1.436823,-2.36512 -1.275599,-6.26771003 m 4.2519887,0.61505 C 13.214953,4.0398219 12.129452,8.2350419 10.78039,11.949322 M 6.5022273,11.760162 C 6.7536253,6.4890919 9.5655053,2.6643819 10.843737,0.63057187 M 1.4563483,9.8925219 C 1.2096294,10.280422 0.37813231,10.403692 0.00963581,10.378892 m 0.7412179,-5.0914601 c -0.6937479,0 -0.6937479,0 -0.6937479,0 M 2.2278708,0.84803187 c -0.03164,-0.14497 0.029177,-0.51911 -0.057786,-0.72619 M 5.2042623,6.2832319 c 0.62214,-0.67715 1.436823,-2.36512 1.275599,-6.26771003 m -4.2519902,0.61505 C -0.21049169,4.0398219 0.87500921,8.2350419 2.2240811,11.949322 m 4.2781642,-0.18916 C 6.2508473,6.4890919 3.4389664,2.6643819 2.1607341,0.63057187"
       inkscape:connector-curvature="0"
       inkscape:label="#knit" />
  </g>
  <g
     inkscape:groupmode="layer"
     id="layer2"
     inkscape:label="Layer 2">
    <path
       style="fill:#00ffff;stroke-width:0.06313454"
       d="m 16.335938,0.33398438 c -7.0051896,0 -7.5700996,0.009319 -7.5332036,0.10546874 0.082109,0.21397234 0.1604687,0.95729218 0.1621094,1.53710938 l 0.00195,0.5996094 1.3007812,2.0195312 c 4.651621,7.2252339 7.084757,11.5829609 9.244141,16.5546879 l 0.527343,1.21289 0.203126,-0.300781 c 1.799908,-2.672713 3.045842,-7.164584 3.52539,-12.6992188 0.201756,-2.328572 0.292822,-6.4227575 0.183594,-8.3183593 l -0.04102,-0.71093752 z m 8.875,0 -0.03906,1.78515622 c -0.04571,1.9913162 0.03257,4.9993046 0.179687,6.8652344 0.442181,5.608452 1.580809,9.893644 3.419922,12.863281 0.15591,0.251749 0.304295,0.458985 0.328125,0.458985 0.02383,0 0.153752,-0.262788 0.289063,-0.583985 0.869426,-2.063813 2.436522,-5.273136 3.708984,-7.59375 1.498526,-2.73289 2.831602,-4.9348141 5.503906,-9.0898435 L 40.18555,2.5761719 40.22461,1.6601562 c 0.02111,-0.5034978 0.0593,-1.0062876 0.08594,-1.11914058 L 40.35938,0.33398438 H 32.785156 Z M 0.27148438,20.535156 0.23046875,22.824219 c -0.0218847,1.259563 -0.054434,4.706663 -0.0722656,7.658203 -0.0178316,2.951539 -0.0478408,5.996922 -0.06835937,6.769531 l -0.0390625,1.40625 H 0.5390625 c 1.5907827,0 3.5259099,-0.599866 4.2636719,-1.322265 L 5.109375,37.035156 4.8242188,36.03125 C 3.3213717,30.714275 2.4594995,25.518865 2.3828125,21.328125 l -0.013672,-0.757813 -1.0488281,-0.01758 z m 46.53124962,0.002 -0.04297,1.185547 c -0.15752,4.281318 -0.890021,8.661545 -2.322266,13.900391 l -0.386719,1.417969 0.355469,0.332031 c 0.390619,0.363587 1.022061,0.69304 1.714844,0.894531 0.459163,0.133545 1.289165,0.304763 1.671875,0.345703 0.121534,0.013 0.460094,0.02956 0.751953,0.03516 l 0.53125,0.0098 -0.04102,-3.173828 c -0.02259,-1.74488 -0.05909,-5.820582 -0.08203,-9.058594 l -0.04297,-5.888672 h -1.052734 z"
       transform="scale(0.26458333)"
       id="color"
       inkscape:connector-curvature="0" />
  </g>
  <g
     inkscape:groupmode="layer"
     id="layer4"
     inkscape:label="Layer 3">
    <path
       style="fill:#00ff00;stroke-width:0.01670435"
       d="m 2.316569,11.924391 0.052873,-0.023 L 2.306409,11.72877 C 1.5621164,9.6904655 1.1291249,7.96146 0.97474229,6.4112089 0.93139272,5.975909 0.93120301,4.8240129 0.9744163,4.4317438 1.0873323,3.4067469 1.3381018,2.5369921 1.7618699,1.7005835 1.9263028,1.3760354 2.1616904,0.97394447 2.1872508,0.97394447 c 0.013135,0 0.5614213,0.84813743 0.9232869,1.42822153 1.1972353,1.9192148 2.019047,3.6625861 2.5455932,5.4001593 0.3630256,1.1979646 0.5978467,2.4712177 0.6768994,3.6702997 l 0.019823,0.300679 h 0.1471658 0.1471657 l 0.0083,-0.08352 c 0.00456,-0.04594 0.020331,-0.245136 0.035035,-0.442665 C 6.8483349,9.1272568 7.4926319,6.9102649 8.5886559,4.7157179 9.0978034,3.6962619 9.5616047,2.9049755 10.548966,1.3712547 l 0.26578,-0.41285043 0.03085,0.0453548 c 0.09001,0.1323363 0.30813,0.5118194 0.402116,0.6996048 1.043215,2.0843677 1.096705,4.5430585 0.170048,7.8163705 -0.16936,0.5982496 -0.486251,1.5717806 -0.716527,2.2012726 -0.03317,0.09067 -0.06031,0.170393 -0.06031,0.177155 0,0.0068 0.02443,0.02013 0.05429,0.02971 0.03799,0.01219 -1.2195256,0.01773 -4.1886144,0.01847 -3.6167297,9e-4 -4.2351007,-0.0024 -4.1900311,-0.02195 z"
       id="prevColor"
       inkscape:connector-curvature="0" />
  </g>
</svg>
