<?xml version="1.0" encoding="UTF-8" standalone="no"?>
<!-- Created with Inkscape (http://www.inkscape.org/) -->

<svg
   xmlns:dc="http://purl.org/dc/elements/1.1/"
   xmlns:cc="http://creativecommons.org/ns#"
   xmlns:rdf="http://www.w3.org/1999/02/22-rdf-syntax-ns#"
   xmlns:svg="http://www.w3.org/2000/svg"
   xmlns="http://www.w3.org/2000/svg"
   xmlns:sodipodi="http://sodipodi.sourceforge.net/DTD/sodipodi-0.dtd"
   xmlns:inkscape="http://www.inkscape.org/namespaces/inkscape"
   width="210mm"
   height="297mm"
   viewBox="0 0 210 297"
   version="1.1"
   id="svg925"
   inkscape:version="0.92.3 (2405546, 2018-03-11)"
   sodipodi:docname="purl.svg">
  <defs
     id="defs919" />
  <sodipodi:namedview
     id="base"
     pagecolor="#ffffff"
     bordercolor="#666666"
     borderopacity="1.0"
     inkscape:pageopacity="0.0"
     inkscape:pageshadow="2"
     inkscape:zoom="11.2"
     inkscape:cx="1.983623"
     inkscape:cy="1090.0603"
     inkscape:document-units="mm"
     inkscape:current-layer="layer1"
     showgrid="false"
     inkscape:window-width="1920"
     inkscape:window-height="1017"
     inkscape:window-x="-8"
     inkscape:window-y="-8"
     inkscape:window-maximized="1" />
  <metadata
     id="metadata922">
    <rdf:RDF>
      <cc:Work
         rdf:about="">
        <dc:format>image/svg+xml</dc:format>
        <dc:type
           rdf:resource="http://purl.org/dc/dcmitype/StillImage" />
        <dc:title></dc:title>
      </cc:Work>
    </rdf:RDF>
  </metadata>
  <g
     inkscape:label="Layer 1"
     inkscape:groupmode="layer"
     id="layer1">
    <path
       id="purl"
       style="fill:#800080;fill-opacity:0.01660689;stroke:#008080;stroke-width:0.28769767;stroke-miterlimit:4;stroke-dasharray:none"
       d="m 2.1627455,11.962793 c -0.2177086,-0.94397 -0.3797,-1.27124 -0.5974085,-1.86605 M 5.1863263,6.2530434 c 0.8490512,1.71264 1.2237511,3.7435301 1.2480343,5.5191496 M 0.01316897,10.380263 C 2.1205661,10.186523 3.8569613,9.5378634 5.7788291,5.2862534 M 2.1646889,0.04417335 2.344803,0.79072335 M 0.69099302,5.5289234 C 1.3280434,-0.42420665 3.2753642,0.26723335 6.5077477,0.23830335 M 0.06044278,5.2495634 c 2.68670182,0.45121 4.98446762,0.0428 6.44270112,0.0367 m 4.3403991,6.6765396 c 0.217708,-0.94397 0.3797,-1.27124 0.597408,-1.86605 M 7.8199616,6.2530534 C 6.9709104,7.9656834 6.5962104,9.9965735 6.5719272,11.772203 M 12.99312,10.380273 C 10.885722,10.186533 9.1493265,9.5378734 7.2274588,5.2862634 M 10.8416,0.04418335 l -0.180114,0.74655 m 1.65381,4.73819005 C 11.678245,-0.42420665 9.7309238,0.26723335 6.4985401,0.23831335 M 12.945846,5.2495734 c -2.686703,0.45121 -4.9844685,0.0428 -6.4427021,0.0367"
       inkscape:connector-curvature="0"
       inkscape:label="#path1287-0-2" />
  </g>
</svg>
