<?xml version="1.0" encoding="UTF-8" standalone="no"?>
<!-- Created with Inkscape (http://www.inkscape.org/) -->

<svg
   xmlns:dc="http://purl.org/dc/elements/1.1/"
   xmlns:cc="http://creativecommons.org/ns#"
   xmlns:rdf="http://www.w3.org/1999/02/22-rdf-syntax-ns#"
   xmlns:svg="http://www.w3.org/2000/svg"
   xmlns="http://www.w3.org/2000/svg"
   xmlns:sodipodi="http://sodipodi.sourceforge.net/DTD/sodipodi-0.dtd"
   xmlns:inkscape="http://www.inkscape.org/namespaces/inkscape"
   width="210mm"
   height="297mm"
   viewBox="0 0 210 297"
   version="1.1"
   id="svg925"
   inkscape:version="0.92.3 (2405546, 2018-03-11)"
   sodipodi:docname="purl_color.svg">
  <defs
     id="defs919" />
  <sodipodi:namedview
     id="base"
     pagecolor="#ffffff"
     bordercolor="#666666"
     borderopacity="1.0"
     inkscape:pageopacity="0.0"
     inkscape:pageshadow="2"
     inkscape:zoom="15.839192"
     inkscape:cx="33.171943"
     inkscape:cy="1099.8747"
     inkscape:document-units="mm"
     inkscape:current-layer="layer6"
     showgrid="false"
     inkscape:window-width="1920"
     inkscape:window-height="1017"
     inkscape:window-x="-8"
     inkscape:window-y="-8"
     inkscape:window-maximized="1" />
  <metadata
     id="metadata922">
    <rdf:RDF>
      <cc:Work
         rdf:about="">
        <dc:format>image/svg+xml</dc:format>
        <dc:type
           rdf:resource="http://purl.org/dc/dcmitype/StillImage" />
        <dc:title></dc:title>
      </cc:Work>
    </rdf:RDF>
  </metadata>
  <g
     inkscape:label="Layer 1"
     inkscape:groupmode="layer"
     id="layer1"
     style="display:inline">
    <path
       id="purl"
       style="fill:none;fill-opacity:0.01660689;stroke:#000000;stroke-width:0.28769767;stroke-miterlimit:4;stroke-dasharray:none"
       d="m 2.1627455,11.962793 c -0.2177086,-0.94397 -0.3797,-1.27124 -0.5974085,-1.86605 M 5.1863263,6.2530434 c 0.8490512,1.71264 1.2237511,3.7435301 1.2480343,5.5191496 M 0.01316897,10.380263 C 2.1205661,10.186523 3.8569613,9.5378634 5.7788291,5.2862534 M 2.1646889,0.04417335 2.344803,0.79072335 M 0.69099302,5.5289234 C 1.3280434,-0.42420665 3.2753642,0.26723335 6.5077477,0.23830335 M 0.06044278,5.2495634 c 2.68670182,0.45121 4.98446762,0.0428 6.44270112,0.0367 m 4.3403991,6.6765396 c 0.217708,-0.94397 0.3797,-1.27124 0.597408,-1.86605 M 7.8199616,6.2530534 C 6.9709104,7.9656834 6.5962104,9.9965735 6.5719272,11.772203 M 12.99312,10.380273 C 10.885722,10.186533 9.1493265,9.5378734 7.2274588,5.2862634 M 10.8416,0.04418335 l -0.180114,0.74655 m 1.65381,4.73819005 C 11.678245,-0.42420665 9.7309238,0.26723335 6.4985401,0.23831335 M 12.945846,5.2495734 c -2.686703,0.45121 -4.9844685,0.0428 -6.4427021,0.0367"
       inkscape:connector-curvature="0"
       inkscape:label="#purl" />
  </g>
  <g
     inkscape:groupmode="layer"
     id="layer5"
     inkscape:label="Layer 2">
    <path
       style="fill:#00ffff;stroke:#000000;stroke-width:0.04464286"
       d="M 24.558594,0.0390625 8.734375,0.04882812 9,1.1484375 9.265625,2.2480469 9.4921875,2.1035156 C 9.8722383,1.8605517 10.762102,1.4331692 11.292969,1.2382812 c 1.19867,-0.44004644 2.558463,-0.70841803 4.363281,-0.85937495 0.78355,-0.065537 15.664529,-0.0944668 17.054688,-0.0332031 2.972355,0.13099042 5.162669,0.67011055 6.824218,1.68164065 0.168247,0.102426 0.318858,0.1875 0.335938,0.1875 0.03591,0 0.558157,-2.13910538 0.529297,-2.16796877 C 40.389834,0.03631817 33.261712,0.0328898 24.558594,0.0390625 Z M 48.955078,20.431641 c -0.01408,-0.01651 -1.494661,0.192433 -1.746094,0.246093 -0.05988,0.01277 -0.101562,0.05274 -0.101562,0.101563 0,0.07159 -0.06261,0.09003 -0.503906,0.134765 -0.634163,0.06429 -0.611329,0.0636 -0.611328,-0.02344 0,-0.06188 -0.036,-0.06789 -0.234376,-0.04492 -0.552553,0.06397 -1.742522,0.166295 -2.800781,0.240235 -1.426134,0.09964 -6.830338,0.113228 -8.416015,0.02148 -2.56156,-0.148196 -5.402571,-0.333235 -5.994141,-0.390625 l -0.279297,-0.02734 0.199219,0.427735 c 0.108991,0.234828 0.444224,0.917081 0.744141,1.517578 0.46127,0.923569 0.563413,1.099601 0.671874,1.144531 0.16408,0.06797 0.187884,0.108808 0.126954,0.222656 -0.0563,0.105194 0.140977,0.503264 0.919922,1.857422 3.325111,5.780539 6.746867,9.296997 10.777343,11.078125 1.851992,0.818422 3.852372,1.324117 6.472657,1.634766 0.282364,0.03347 0.611078,0.06381 0.730468,0.06641 l 0.216797,0.0039 -0.02734,-1.082031 c -0.01492,-0.595425 -0.04991,-4.688337 -0.07813,-9.095703 -0.02822,-4.407366 -0.05771,-8.023023 -0.06641,-8.033203 z m -48.74804675,0.0078 c -0.0206191,0.02062 -0.0729325,5.491257 -0.16210938,16.6875 L 0.03125,38.669922 0.58984375,38.611328 C 2.5656383,38.404601 4.392516,38.041687 5.8105469,37.574219 c 1.8806156,-0.619965 3.747494,-1.624685 5.2656251,-2.833985 2.376702,-1.893215 4.554644,-4.529106 6.671875,-8.072265 0.649768,-1.087379 1.428681,-2.482948 1.425781,-2.554688 -0.001,-0.02496 -0.01453,-0.09783 -0.03125,-0.160156 -0.02643,-0.09854 -0.0093,-0.122633 0.13086,-0.189453 0.150473,-0.07176 0.208288,-0.173174 0.873046,-1.525391 0.391527,-0.796422 0.710938,-1.46804 0.710938,-1.49414 0,-0.0305 -0.08386,-0.04051 -0.234375,-0.02539 -0.967835,0.09726 -5.376899,0.360054 -7.175781,0.427734 -1.558983,0.05865 -5.8647472,0.03171 -7.009766,-0.04492 -0.7986504,-0.05345 -2.6451927,-0.210359 -3.0234375,-0.255859 -0.198888,-0.02392 -0.234375,-0.01718 -0.234375,0.04492 0,0.08712 0.022871,0.08774 -0.6113281,0.02344 C 2.1270593,20.869322 2.0625,20.850887 2.0625,20.779297 c 0,-0.04881 -0.039737,-0.08878 -0.099609,-0.101563 C 1.65457,20.611924 0.22820745,20.418273 0.20703165,20.439453 Z"
       transform="scale(0.26458333)"
       id="color"
       inkscape:connector-curvature="0" />
  </g>
  <g
     inkscape:groupmode="layer"
     id="layer6"
     inkscape:label="Layer 3"
     style="display:inline">
    <path
       style="display:none;fill:#00ff00;stroke:#000000;stroke-width:0.04464286"
       d="m 22.685547,1.4746094 c -3.500835,0.014896 -6.635322,0.045851 -6.964844,0.070312 C 11.810004,1.8352177 9.4172947,2.9858576 7.6035156,5.4453125 5.7055632,8.0189049 4.3578628,12.257151 3.5429688,18.21875 3.322958,19.828304 3.3301308,19.657636 3.4765625,19.6875 3.7662891,19.746588 5.1327956,19.848532 7.6660156,20 c 0.1473214,0.0088 1.6035155,0.0089 3.2363284,0.002 3.347664,-0.01413 3.625388,-0.02548 9.867187,-0.447265 2.05816,-0.139079 4.384398,-0.185682 5.712891,-0.113282 0.527902,0.02877 2.165458,0.131886 3.638672,0.228516 4.821008,0.316215 5.798871,0.355692 8.617187,0.355469 1.919482,-1.43e-4 3.247728,-0.03724 4.597657,-0.132813 0.872481,-0.06177 2.10285,-0.170815 2.294921,-0.203125 L 45.78125,19.66411 45.75391,19.337939 C 45.715453,18.882985 45.525314,17.546189 45.341797,16.433594 44.568491,11.745331 43.439948,8.2927509 41.929688,5.9941406 41.452845,5.2683868 41.011845,4.7368189 40.404297,4.15625 38.891877,2.71099 37.037664,1.9465112 34.228516,1.6113281 33.196509,1.4881906 29.534576,1.4454664 22.685547,1.4746094 Z m 6.669922,23.9218746 c -0.0059,0.006 -0.140423,0.322544 -0.298828,0.703125 -1.871862,4.497269 -3.065051,9.616332 -3.488282,14.955079 -0.08095,1.021149 -0.160156,2.529338 -0.160156,3.078124 v 0.386719 h -0.824219 -0.826172 v -0.248047 c -5.5e-4,-0.465495 -0.0895,-2.211315 -0.158203,-3.105468 -0.381961,-4.971432 -1.471536,-9.892343 -3.130859,-14.150391 -0.350627,-0.899757 -0.643874,-1.585584 -0.677734,-1.583984 -0.01611,7.74e-4 -0.147996,0.21729 -0.292969,0.480468 -0.501983,0.911279 -1.380633,2.350086 -2.007813,3.28711 -3.083607,4.606991 -6.375337,7.520733 -10.2070309,9.039062 -0.3314732,0.131348 -0.6084275,0.246307 -0.6171875,0.253907 -0.00876,0.0076 0.1838449,0.552661 0.4296875,1.210937 0.5200443,1.392488 0.8580149,2.412808 1.1464844,3.466797 0.1982147,0.724224 0.4707031,1.824764 0.4707031,1.902344 0,0.02055 -0.075893,0.05758 -0.1679687,0.08203 -0.1120076,0.02974 5.1967271,0.04297 16.0390621,0.04297 10.842336,0 16.149117,-0.01322 16.03711,-0.04297 -0.09543,-0.02534 -0.167969,-0.0727 -0.167969,-0.109375 0,-0.08401 0.364522,-1.534579 0.564453,-2.248047 0.245337,-0.875504 0.571343,-1.844343 1.050781,-3.121094 0.243256,-0.647819 0.436588,-1.183153 0.429688,-1.189453 -0.0069,-0.0063 -0.233817,-0.0951 -0.503906,-0.199219 -0.587113,-0.226326 -1.697357,-0.753645 -2.267579,-1.076171 -0.556666,-0.314861 -1.567517,-0.983676 -2.091796,-1.384766 -2.084621,-1.5948 -4.197108,-3.948248 -6.042969,-6.734375 -0.562614,-0.849204 -1.564685,-2.501387 -1.986328,-3.271485 -0.130997,-0.239256 -0.2441,-0.429828 -0.25,-0.423827 z"
       transform="scale(0.26458333)"
       id="prevColor"
       inkscape:connector-curvature="0" />
  </g>
</svg>
